<svg width="64" height="64" viewBox="0 0 64 64" fill="none" xmlns="http://www.w3.org/2000/svg">
<g clip-path="url(#clip0_17_78)">
<rect width="64" height="64" fill="#FF9AD4"/>
<path d="M52.1136 24.75H42.1591C41.9773 23.4621 41.6061 22.3182 41.0455 21.3182C40.4849 20.303 39.7652 19.4394 38.8864 18.7273C38.0076 18.0151 36.9924 17.4697 35.8409 17.0909C34.7045 16.7121 33.4697 16.5227 32.1364 16.5227C29.7273 16.5227 27.6288 17.1212 25.8409 18.3182C24.053 19.5 22.6667 21.2273 21.6818 23.5C20.697 25.7576 20.2045 28.5 20.2045 31.7273C20.2045 35.0455 20.697 37.8333 21.6818 40.0909C22.6818 42.3485 24.0758 44.053 25.8636 45.2045C27.6515 46.3561 29.7197 46.9318 32.0682 46.9318C33.3864 46.9318 34.6061 46.7576 35.7273 46.4091C36.8636 46.0606 37.8712 45.553 38.75 44.8864C39.6288 44.2045 40.3561 43.3788 40.9318 42.4091C41.5227 41.4394 41.9318 40.3333 42.1591 39.0909L52.1136 39.1364C51.8561 41.2727 51.2121 43.3333 50.1818 45.3182C49.1667 47.2879 47.7955 49.053 46.0682 50.6136C44.3561 52.1591 42.3106 53.3864 39.9318 54.2955C37.5682 55.1894 34.8939 55.6364 31.9091 55.6364C27.7576 55.6364 24.0455 54.697 20.7727 52.8182C17.5152 50.9394 14.9394 48.2197 13.0455 44.6591C11.1667 41.0985 10.2273 36.7879 10.2273 31.7273C10.2273 26.6515 11.1818 22.3333 13.0909 18.7727C15 15.2121 17.5909 12.5 20.8636 10.6364C24.1364 8.75757 27.8182 7.81818 31.9091 7.81818C34.6061 7.81818 37.1061 8.19697 39.4091 8.95454C41.7273 9.71212 43.7803 10.8182 45.5682 12.2727C47.3561 13.7121 48.8106 15.4773 49.9318 17.5682C51.0682 19.6591 51.7955 22.053 52.1136 24.75Z" fill="white"/>
</g>
<defs>
<clipPath id="clip0_17_78">
<rect width="64" height="64" fill="white"/>
</clipPath>
</defs>
</svg>
